<svg xmlns="http://www.w3.org/2000/svg" viewBox="0 0 100 100" fill="none" shape-rendering="auto" aria-hidden="true" width="128" height="128"><!-- Generated by DiceBear (https://www.dicebear.com) --><metadata xmlns:rdf="http://www.w3.org/1999/02/22-rdf-syntax-ns#" xmlns:xsi="http://www.w3.org/2001/XMLSchema-instance" xmlns:dc="http://purl.org/dc/elements/1.1/" xmlns:dcterms="http://purl.org/dc/terms/"><rdf:RDF><rdf:Description><dc:title>Sprouts</dc:title><dc:creator>DiceBear</dc:creator><dc:source xsi:type="dcterms:URI">https://www.dicebear.com</dc:source><dcterms:license xsi:type="dcterms:URI">https://creativecommons.org/publicdomain/zero/1.0/</dcterms:license><dc:rights>“Sprouts” (https://www.dicebear.com) by “DiceBear”, licensed under “CC0 1.0” (https://creativecommons.org/publicdomain/zero/1.0/)</dc:rights></rdf:Description></rdf:RDF></metadata><defs><clipPath id="gg004-dbsps-tulip"><path d="M23 25c0-12 4-16 10-10 6-6 10-2 10 10q0 8-10 8t-10-8"/></clipPath><g id="gg004-plant-tulip-3bf652a2"><g opacity=".15" transform="translate(-14 -5.5)"><path d="M50 72V42" stroke="#1e293b" stroke-width="4" stroke-linecap="round" stroke-linejoin="round"/><path d="M50 60c-6.4 0-11.2-4.8-11.2-11.2 6.4 0 11.2 4 11.2 11.2m0 0c6.4 0 11.2-4.8 11.2-11.2-6.4 0-11.2 4-11.2 11.2M40 34c0-12 4-16 10-10 6-6 10-2 10 10q0 8-10 8t-10-8" fill="#1e293b"/><g clip-path="url(#gg004-dbsps-tulip)"><path d="M40 34c0-12 4-16 10-10 6-6 10-2 10 10q0 8-10 8t-10-8m-2-2.5c0-12 4-16 10-10 6-6 10-2 10 10q0 8-10 8t-10-8" fill="#1e293b" fill-rule="evenodd"/></g></g><path d="M33 63V33" stroke="#86efac" stroke-width="4" stroke-linecap="round" stroke-linejoin="round"/><path d="M33 51c-6.4 0-11.2-4.8-11.2-11.2 6.4 0 11.2 4 11.2 11.2m0 0c6.4 0 11.2-4.8 11.2-11.2-6.4 0-11.2 4-11.2 11.2" fill="#86efac"/><path d="M23 25c0-12 4-16 10-10 6-6 10-2 10 10q0 8-10 8t-10-8" fill="#f0abfc"/><g clip-path="url(#gg004-dbsps-tulip)"><path d="M23 25c0-12 4-16 10-10 6-6 10-2 10 10q0 8-10 8t-10-8m-2-2.5c0-12 4-16 10-10 6-6 10-2 10 10q0 8-10 8t-10-8" fill="#1e293b" opacity=".12" fill-rule="evenodd"/></g></g><clipPath id="gg004-dbspp-taper"><path d="M7 4h52l-6 44H13Z"/></clipPath><g id="gg004-pot-taper-3bf652a2"><path d="M10 7.5h52l-6 44H16Z" fill="#1e293b" opacity=".15"/><path d="M7 4h52l-6 44H13Z" fill="#c4b5fd"/><g clip-path="url(#gg004-dbspp-taper)"><path d="M7 4h52l-6 44H13Zm3 3.5h52l-6 44H16Z" fill="#ffffff" opacity=".16" fill-rule="evenodd"/><path d="M7 4h52l-6 44H13ZM4 .5h52l-6 44H10Z" fill="#1e293b" opacity=".1" fill-rule="evenodd"/></g></g><g id="gg004-pattern-dots-3bf652a2"><circle cx="4" cy="7" r="2.2" fill="#ffffff" opacity=".25"/><circle cx="14" cy="9.5" r="2.2" fill="#ffffff" opacity=".25"/><circle cx="24" cy="7" r="2.2" fill="#ffffff" opacity=".25"/></g><g id="gg004-eyes-sleepy-3bf652a2"><path d="M3 10a6 6 0 0 0 12 0Zm22 0a6 6 0 0 0 12 0Z" fill="#ffffff"/><path d="M6.4 10a2.6 2.6 0 0 0 5.2 0Zm22 0a2.6 2.6 0 0 0 5.2 0Z" fill="#1e293b"/><path d="M2 10h14m8 0h14" stroke="#1e293b" stroke-width="2.5" stroke-linecap="round" stroke-linejoin="round"/></g><g id="gg004-mouth-smile-3bf652a2"><path d="M2 3q8 7 16 0" stroke="#1e293b" stroke-width="3" stroke-linecap="round" stroke-linejoin="round"/></g><g id="gg004-animation-none-3bf652a2"></g><clipPath id="gg004-clip-3bf652a2"><rect width="100" height="100" rx="50" ry="50"/></clipPath></defs><g clip-path="url(#gg004-clip-3bf652a2)"><rect width="100" height="100" fill="#b0e0e6"/><g class="dbsp-a"><g class="dbsp-g"><use transform="translate(17 9)" href="#gg004-plant-tulip-3bf652a2"/></g><use transform="translate(17 58)" href="#gg004-pot-taper-3bf652a2"/><use transform="translate(36 85)" href="#gg004-pattern-dots-3bf652a2"/><g class="dbsp-e"><use transform="translate(30 67)" href="#gg004-eyes-sleepy-3bf652a2"/></g><use transform="translate(40 81)" href="#gg004-mouth-smile-3bf652a2"/></g><use href="#gg004-animation-none-3bf652a2"/></g></svg>