<svg xmlns="http://www.w3.org/2000/svg" viewBox="0 0 100 100" fill="none" shape-rendering="auto" aria-hidden="true" width="128" height="128"><!-- Generated by DiceBear (https://www.dicebear.com) --><metadata xmlns:rdf="http://www.w3.org/1999/02/22-rdf-syntax-ns#" xmlns:xsi="http://www.w3.org/2001/XMLSchema-instance" xmlns:dc="http://purl.org/dc/elements/1.1/" xmlns:dcterms="http://purl.org/dc/terms/"><rdf:RDF><rdf:Description><dc:title>Sprouts</dc:title><dc:creator>DiceBear</dc:creator><dc:source xsi:type="dcterms:URI">https://www.dicebear.com</dc:source><dcterms:license xsi:type="dcterms:URI">https://creativecommons.org/publicdomain/zero/1.0/</dcterms:license><dc:rights>“Sprouts” (https://www.dicebear.com) by “DiceBear”, licensed under “CC0 1.0” (https://creativecommons.org/publicdomain/zero/1.0/)</dc:rights></rdf:Description></rdf:RDF></metadata><defs><clipPath id="gg005-dbsps-bush1"><path d="M10 43a13 13 0 1 0 26 0 13 13 0 1 0-26 0"/></clipPath><clipPath id="gg005-dbsps-bush2"><path d="M30 43a13 13 0 1 0 26 0 13 13 0 1 0-26 0"/></clipPath><clipPath id="gg005-dbsps-bush3"><path d="M18 31a15 15 0 1 0 30 0 15 15 0 1 0-30 0"/></clipPath><g id="gg005-plant-bush-3cf65435"><g opacity=".15" transform="translate(-14 -5.5)"><path d="M27 52a13 13 0 1 0 26 0 13 13 0 1 0-26 0" fill="#1e293b"/><g clip-path="url(#gg005-dbsps-bush1)"><path d="M27 52a13 13 0 1 0 26 0 13 13 0 1 0-26 0m-2-2.5a13 13 0 1 0 26 0 13 13 0 1 0-26 0" fill="#1e293b" fill-rule="evenodd"/></g><path d="M47 52a13 13 0 1 0 26 0 13 13 0 1 0-26 0" fill="#1e293b"/><g clip-path="url(#gg005-dbsps-bush2)"><path d="M47 52a13 13 0 1 0 26 0 13 13 0 1 0-26 0m-2-2.5a13 13 0 1 0 26 0 13 13 0 1 0-26 0" fill="#1e293b" fill-rule="evenodd"/></g><path d="M35 40a15 15 0 1 0 30 0 15 15 0 1 0-30 0" fill="#1e293b"/><g clip-path="url(#gg005-dbsps-bush3)"><path d="M35 40a15 15 0 1 0 30 0 15 15 0 1 0-30 0m-2-2.5a15 15 0 1 0 30 0 15 15 0 1 0-30 0" fill="#1e293b" fill-rule="evenodd"/></g><circle cx="44" cy="38" r="2.2" fill="#1e293b"/><circle cx="57" cy="46" r="2.2" fill="#1e293b"/><circle cx="37" cy="56" r="2.2" fill="#1e293b"/></g><path d="M10 43a13 13 0 1 0 26 0 13 13 0 1 0-26 0" fill="#6ee7b9"/><g clip-path="url(#gg005-dbsps-bush1)"><path d="M10 43a13 13 0 1 0 26 0 13 13 0 1 0-26 0m-2-2.5a13 13 0 1 0 26 0 13 13 0 1 0-26 0" fill="#1e293b" opacity=".12" fill-rule="evenodd"/></g><path d="M30 43a13 13 0 1 0 26 0 13 13 0 1 0-26 0" fill="#6ee7b9"/><g clip-path="url(#gg005-dbsps-bush2)"><path d="M30 43a13 13 0 1 0 26 0 13 13 0 1 0-26 0m-2-2.5a13 13 0 1 0 26 0 13 13 0 1 0-26 0" fill="#1e293b" opacity=".12" fill-rule="evenodd"/></g><path d="M18 31a15 15 0 1 0 30 0 15 15 0 1 0-30 0" fill="#6ee7b9"/><g clip-path="url(#gg005-dbsps-bush3)"><path d="M18 31a15 15 0 1 0 30 0 15 15 0 1 0-30 0m-2-2.5a15 15 0 1 0 30 0 15 15 0 1 0-30 0" fill="#1e293b" opacity=".12" fill-rule="evenodd"/></g><circle cx="27" cy="29" r="2.2" fill="#c4b5fd"/><circle cx="40" cy="37" r="2.2" fill="#c4b5fd"/><circle cx="20" cy="47" r="2.2" fill="#c4b5fd"/></g><clipPath id="gg005-dbspp-round"><path d="M33 4C13 4 5 16 5 26c0 12 12 22 28 22s28-10 28-22c0-10-8-22-28-22"/></clipPath><g id="gg005-pot-round-3cf65435"><path d="M36 7.5c-20 0-28 12-28 22 0 12 12 22 28 22s28-10 28-22c0-10-8-22-28-22" fill="#1e293b" opacity=".15"/><path d="M33 4C13 4 5 16 5 26c0 12 12 22 28 22s28-10 28-22c0-10-8-22-28-22" fill="#fda4af"/><g clip-path="url(#gg005-dbspp-round)"><path d="M33 4C13 4 5 16 5 26c0 12 12 22 28 22s28-10 28-22c0-10-8-22-28-22m3 3.5c-20 0-28 12-28 22 0 12 12 22 28 22s28-10 28-22c0-10-8-22-28-22" fill="#ffffff" opacity=".16" fill-rule="evenodd"/><path d="M33 4C13 4 5 16 5 26c0 12 12 22 28 22s28-10 28-22c0-10-8-22-28-22M30 .5c-20 0-28 12-28 22 0 12 12 22 28 22s28-10 28-22c0-10-8-22-28-22" fill="#1e293b" opacity=".1" fill-rule="evenodd"/></g></g><g id="gg005-eyes-close-3cf65435"><circle cx="15" cy="10" r="2.6" fill="#1e293b"/><circle cx="25" cy="10" r="2.6" fill="#1e293b"/></g><g id="gg005-mouth-open-3cf65435"><ellipse cx="10" cy="5.5" rx="5" ry="5.5" fill="#1e293b"/><ellipse cx="10" cy="8" rx="2.7" ry="2" fill="#fb7185"/></g><g id="gg005-animation-none-3cf65435"></g><clipPath id="gg005-clip-3cf65435"><rect width="100" height="100" rx="50" ry="50"/></clipPath></defs><g clip-path="url(#gg005-clip-3cf65435)"><rect width="100" height="100" fill="#ffdab9"/><g class="dbsp-a"><g class="dbsp-g"><use transform="translate(17 9)" href="#gg005-plant-bush-3cf65435"/></g><use transform="translate(17 58)" href="#gg005-pot-round-3cf65435"/><g class="dbsp-e"><use transform="translate(30 67)" href="#gg005-eyes-close-3cf65435"/></g><use transform="translate(40 81)" href="#gg005-mouth-open-3cf65435"/></g><use href="#gg005-animation-none-3cf65435"/></g></svg>