<svg xmlns="http://www.w3.org/2000/svg" viewBox="0 0 100 100" fill="none" shape-rendering="auto" aria-hidden="true" width="128" height="128"><!-- Generated by DiceBear (https://www.dicebear.com) --><metadata xmlns:rdf="http://www.w3.org/1999/02/22-rdf-syntax-ns#" xmlns:xsi="http://www.w3.org/2001/XMLSchema-instance" xmlns:dc="http://purl.org/dc/elements/1.1/" xmlns:dcterms="http://purl.org/dc/terms/"><rdf:RDF><rdf:Description><dc:title>Sprouts</dc:title><dc:creator>DiceBear</dc:creator><dc:source xsi:type="dcterms:URI">https://www.dicebear.com</dc:source><dcterms:license xsi:type="dcterms:URI">https://creativecommons.org/publicdomain/zero/1.0/</dcterms:license><dc:rights>“Sprouts” (https://www.dicebear.com) by “DiceBear”, licensed under “CC0 1.0” (https://creativecommons.org/publicdomain/zero/1.0/)</dc:rights></rdf:Description></rdf:RDF></metadata><defs><clipPath id="gg006-dbsps-tulip"><path d="M23 25c0-12 4-16 10-10 6-6 10-2 10 10q0 8-10 8t-10-8"/></clipPath><g id="gg006-plant-tulip-39f64f7c"><g opacity=".15" transform="translate(-14 -5.5)"><path d="M50 72V42" stroke="#1e293b" stroke-width="4" stroke-linecap="round" stroke-linejoin="round"/><path d="M50 60c-6.4 0-11.2-4.8-11.2-11.2 6.4 0 11.2 4 11.2 11.2m0 0c6.4 0 11.2-4.8 11.2-11.2-6.4 0-11.2 4-11.2 11.2M40 34c0-12 4-16 10-10 6-6 10-2 10 10q0 8-10 8t-10-8" fill="#1e293b"/><g clip-path="url(#gg006-dbsps-tulip)"><path d="M40 34c0-12 4-16 10-10 6-6 10-2 10 10q0 8-10 8t-10-8m-2-2.5c0-12 4-16 10-10 6-6 10-2 10 10q0 8-10 8t-10-8" fill="#1e293b" fill-rule="evenodd"/></g></g><path d="M33 63V33" stroke="#34d399" stroke-width="4" stroke-linecap="round" stroke-linejoin="round"/><path d="M33 51c-6.4 0-11.2-4.8-11.2-11.2 6.4 0 11.2 4 11.2 11.2m0 0c6.4 0 11.2-4.8 11.2-11.2-6.4 0-11.2 4-11.2 11.2" fill="#34d399"/><path d="M23 25c0-12 4-16 10-10 6-6 10-2 10 10q0 8-10 8t-10-8" fill="#c4b5fd"/><g clip-path="url(#gg006-dbsps-tulip)"><path d="M23 25c0-12 4-16 10-10 6-6 10-2 10 10q0 8-10 8t-10-8m-2-2.5c0-12 4-16 10-10 6-6 10-2 10 10q0 8-10 8t-10-8" fill="#1e293b" opacity=".12" fill-rule="evenodd"/></g></g><clipPath id="gg006-dbspp-rim"><path d="M9 12q-2 0-2-3V7q0-3 2-3h48q2 0 2 3v2q0 3-2 3h-4v36H13V12Z"/></clipPath><g id="gg006-pot-rim-39f64f7c"><path d="M12 15.5q-2 0-2-3v-2q0-3 2-3h48q2 0 2 3v2q0 3-2 3h-4v36H16v-36Z" fill="#1e293b" opacity=".15"/><path d="M9 12q-2 0-2-3V7q0-3 2-3h48q2 0 2 3v2q0 3-2 3h-4v36H13V12Z" fill="#c4b5fd"/><g clip-path="url(#gg006-dbspp-rim)"><path d="M9 12q-2 0-2-3V7q0-3 2-3h48q2 0 2 3v2q0 3-2 3h-4v36H13V12Zm3 3.5q-2 0-2-3v-2q0-3 2-3h48q2 0 2 3v2q0 3-2 3h-4v36H16v-36Z" fill="#ffffff" opacity=".16" fill-rule="evenodd"/><path d="M9 12q-2 0-2-3V7q0-3 2-3h48q2 0 2 3v2q0 3-2 3h-4v36H13V12ZM6 8.5q-2 0-2-3v-2q0-3 2-3h48q2 0 2 3v2q0 3-2 3h-4v36H10v-36Z" fill="#1e293b" opacity=".1" fill-rule="evenodd"/></g></g><g id="gg006-pattern-band-39f64f7c"><rect x="1" y="4.5" width="26" height="5.5" rx="2.75" fill="#ffffff" opacity=".18"/></g><g id="gg006-eyes-angry-39f64f7c"><circle cx="9" cy="10" r="6" fill="#ffffff"/><circle cx="31" cy="10" r="6" fill="#ffffff"/><circle cx="9" cy="10" r="2.6" fill="#1e293b"/><circle cx="31" cy="10" r="2.6" fill="#1e293b"/><path d="m3 2 12 4m22-4L25 6" stroke="#1e293b" stroke-width="3" stroke-linecap="round" stroke-linejoin="round"/></g><g id="gg006-mouth-grin-39f64f7c"><path d="M1.5 3a8.5 8.5 0 0 0 17 0Z" fill="#1e293b"/><path d="M6 7a4 4 0 0 0 8 0Z" fill="#fb7185"/></g><g id="gg006-animation-none-39f64f7c"></g><clipPath id="gg006-clip-39f64f7c"><rect width="100" height="100" rx="50" ry="50"/></clipPath></defs><g clip-path="url(#gg006-clip-39f64f7c)"><rect width="100" height="100" fill="#dda0dd"/><g class="dbsp-a"><g class="dbsp-g"><use transform="translate(17 9)" href="#gg006-plant-tulip-39f64f7c"/></g><use transform="translate(17 58)" href="#gg006-pot-rim-39f64f7c"/><use transform="translate(36 85)" href="#gg006-pattern-band-39f64f7c"/><g class="dbsp-e"><use transform="translate(30 67)" href="#gg006-eyes-angry-39f64f7c"/></g><use transform="translate(40 81)" href="#gg006-mouth-grin-39f64f7c"/></g><use href="#gg006-animation-none-39f64f7c"/></g></svg>