<svg xmlns="http://www.w3.org/2000/svg" viewBox="0 0 100 100" fill="none" shape-rendering="auto" aria-hidden="true" width="128" height="128"><!-- Generated by DiceBear (https://www.dicebear.com) --><metadata xmlns:rdf="http://www.w3.org/1999/02/22-rdf-syntax-ns#" xmlns:xsi="http://www.w3.org/2001/XMLSchema-instance" xmlns:dc="http://purl.org/dc/elements/1.1/" xmlns:dcterms="http://purl.org/dc/terms/"><rdf:RDF><rdf:Description><dc:title>Sprouts</dc:title><dc:creator>DiceBear</dc:creator><dc:source xsi:type="dcterms:URI">https://www.dicebear.com</dc:source><dcterms:license xsi:type="dcterms:URI">https://creativecommons.org/publicdomain/zero/1.0/</dcterms:license><dc:rights>“Sprouts” (https://www.dicebear.com) by “DiceBear”, licensed under “CC0 1.0” (https://creativecommons.org/publicdomain/zero/1.0/)</dc:rights></rdf:Description></rdf:RDF></metadata><defs><clipPath id="gg009-dbsps-bush1"><path d="M10 43a13 13 0 1 0 26 0 13 13 0 1 0-26 0"/></clipPath><clipPath id="gg009-dbsps-bush2"><path d="M30 43a13 13 0 1 0 26 0 13 13 0 1 0-26 0"/></clipPath><clipPath id="gg009-dbsps-bush3"><path d="M18 31a15 15 0 1 0 30 0 15 15 0 1 0-30 0"/></clipPath><g id="gg009-plant-bush-40f65a81"><g opacity=".15" transform="translate(-14 -5.5)"><path d="M27 52a13 13 0 1 0 26 0 13 13 0 1 0-26 0" fill="#1e293b"/><g clip-path="url(#gg009-dbsps-bush1)"><path d="M27 52a13 13 0 1 0 26 0 13 13 0 1 0-26 0m-2-2.5a13 13 0 1 0 26 0 13 13 0 1 0-26 0" fill="#1e293b" fill-rule="evenodd"/></g><path d="M47 52a13 13 0 1 0 26 0 13 13 0 1 0-26 0" fill="#1e293b"/><g clip-path="url(#gg009-dbsps-bush2)"><path d="M47 52a13 13 0 1 0 26 0 13 13 0 1 0-26 0m-2-2.5a13 13 0 1 0 26 0 13 13 0 1 0-26 0" fill="#1e293b" fill-rule="evenodd"/></g><path d="M35 40a15 15 0 1 0 30 0 15 15 0 1 0-30 0" fill="#1e293b"/><g clip-path="url(#gg009-dbsps-bush3)"><path d="M35 40a15 15 0 1 0 30 0 15 15 0 1 0-30 0m-2-2.5a15 15 0 1 0 30 0 15 15 0 1 0-30 0" fill="#1e293b" fill-rule="evenodd"/></g><circle cx="44" cy="38" r="2.2" fill="#1e293b"/><circle cx="57" cy="46" r="2.2" fill="#1e293b"/><circle cx="37" cy="56" r="2.2" fill="#1e293b"/></g><path d="M10 43a13 13 0 1 0 26 0 13 13 0 1 0-26 0" fill="#2dd4bf"/><g clip-path="url(#gg009-dbsps-bush1)"><path d="M10 43a13 13 0 1 0 26 0 13 13 0 1 0-26 0m-2-2.5a13 13 0 1 0 26 0 13 13 0 1 0-26 0" fill="#1e293b" opacity=".12" fill-rule="evenodd"/></g><path d="M30 43a13 13 0 1 0 26 0 13 13 0 1 0-26 0" fill="#2dd4bf"/><g clip-path="url(#gg009-dbsps-bush2)"><path d="M30 43a13 13 0 1 0 26 0 13 13 0 1 0-26 0m-2-2.5a13 13 0 1 0 26 0 13 13 0 1 0-26 0" fill="#1e293b" opacity=".12" fill-rule="evenodd"/></g><path d="M18 31a15 15 0 1 0 30 0 15 15 0 1 0-30 0" fill="#2dd4bf"/><g clip-path="url(#gg009-dbsps-bush3)"><path d="M18 31a15 15 0 1 0 30 0 15 15 0 1 0-30 0m-2-2.5a15 15 0 1 0 30 0 15 15 0 1 0-30 0" fill="#1e293b" opacity=".12" fill-rule="evenodd"/></g><circle cx="27" cy="29" r="2.2" fill="#f9a8d4"/><circle cx="40" cy="37" r="2.2" fill="#f9a8d4"/><circle cx="20" cy="47" r="2.2" fill="#f9a8d4"/></g><clipPath id="gg009-dbspp-rim"><path d="M9 12q-2 0-2-3V7q0-3 2-3h48q2 0 2 3v2q0 3-2 3h-4v36H13V12Z"/></clipPath><g id="gg009-pot-rim-40f65a81"><path d="M12 15.5q-2 0-2-3v-2q0-3 2-3h48q2 0 2 3v2q0 3-2 3h-4v36H16v-36Z" fill="#1e293b" opacity=".15"/><path d="M9 12q-2 0-2-3V7q0-3 2-3h48q2 0 2 3v2q0 3-2 3h-4v36H13V12Z" fill="#f0abfc"/><g clip-path="url(#gg009-dbspp-rim)"><path d="M9 12q-2 0-2-3V7q0-3 2-3h48q2 0 2 3v2q0 3-2 3h-4v36H13V12Zm3 3.5q-2 0-2-3v-2q0-3 2-3h48q2 0 2 3v2q0 3-2 3h-4v36H16v-36Z" fill="#ffffff" opacity=".16" fill-rule="evenodd"/><path d="M9 12q-2 0-2-3V7q0-3 2-3h48q2 0 2 3v2q0 3-2 3h-4v36H13V12ZM6 8.5q-2 0-2-3v-2q0-3 2-3h48q2 0 2 3v2q0 3-2 3h-4v36H10v-36Z" fill="#1e293b" opacity=".1" fill-rule="evenodd"/></g></g><g id="gg009-pattern-chevron-40f65a81"><path d="m2 8 4-4 4 4 4-4 4 4 4-4 4 4" stroke="#ffffff" stroke-width="2.5" stroke-linecap="round" stroke-linejoin="round" opacity=".2"/></g><g id="gg009-eyes-angry-40f65a81"><circle cx="9" cy="10" r="6" fill="#ffffff"/><circle cx="31" cy="10" r="6" fill="#ffffff"/><circle cx="9" cy="10" r="2.6" fill="#1e293b"/><circle cx="31" cy="10" r="2.6" fill="#1e293b"/><path d="m3 2 12 4m22-4L25 6" stroke="#1e293b" stroke-width="3" stroke-linecap="round" stroke-linejoin="round"/></g><g id="gg009-mouth-line-40f65a81"><path d="M4 5h12" stroke="#1e293b" stroke-width="3" stroke-linecap="round" stroke-linejoin="round"/></g><g id="gg009-animation-none-40f65a81"></g><clipPath id="gg009-clip-40f65a81"><rect width="100" height="100" rx="50" ry="50"/></clipPath></defs><g clip-path="url(#gg009-clip-40f65a81)"><rect width="100" height="100" fill="#ffb6c1"/><g class="dbsp-a"><g class="dbsp-g"><use transform="translate(17 9)" href="#gg009-plant-bush-40f65a81"/></g><use transform="translate(17 58)" href="#gg009-pot-rim-40f65a81"/><use transform="translate(36 85)" href="#gg009-pattern-chevron-40f65a81"/><g class="dbsp-e"><use transform="translate(30 67)" href="#gg009-eyes-angry-40f65a81"/></g><use transform="translate(40 81)" href="#gg009-mouth-line-40f65a81"/></g><use href="#gg009-animation-none-40f65a81"/></g></svg>