<svg xmlns="http://www.w3.org/2000/svg" viewBox="0 0 100 100" fill="none" shape-rendering="auto" aria-hidden="true" width="128" height="128"><!-- Generated by DiceBear (https://www.dicebear.com) --><metadata xmlns:rdf="http://www.w3.org/1999/02/22-rdf-syntax-ns#" xmlns:xsi="http://www.w3.org/2001/XMLSchema-instance" xmlns:dc="http://purl.org/dc/elements/1.1/" xmlns:dcterms="http://purl.org/dc/terms/"><rdf:RDF><rdf:Description><dc:title>Sprouts</dc:title><dc:creator>DiceBear</dc:creator><dc:source xsi:type="dcterms:URI">https://www.dicebear.com</dc:source><dcterms:license xsi:type="dcterms:URI">https://creativecommons.org/publicdomain/zero/1.0/</dcterms:license><dc:rights>“Sprouts” (https://www.dicebear.com) by “DiceBear”, licensed under “CC0 1.0” (https://creativecommons.org/publicdomain/zero/1.0/)</dc:rights></rdf:Description></rdf:RDF></metadata><defs><g id="gg010-plant-flower-3df8945f"><g opacity=".15" transform="translate(-14 -5.5)"><path d="M50 72V40" stroke="#1e293b" stroke-width="4" stroke-linecap="round" stroke-linejoin="round"/><path d="M50 58c-5.6 0-9.8-4.2-9.8-9.8 5.6 0 9.8 3.5 9.8 9.8m0 0c5.6 0 9.8-4.2 9.8-9.8-5.6 0-9.8 3.5-9.8 9.8" fill="#1e293b"/><circle cx="50" cy="18" r="7" fill="#1e293b"/><circle cx="41.5" cy="24" r="7" fill="#1e293b"/><circle cx="58.5" cy="24" r="7" fill="#1e293b"/><circle cx="44.5" cy="33.5" r="7" fill="#1e293b"/><circle cx="55.5" cy="33.5" r="7" fill="#1e293b"/><circle cx="50" cy="26.5" r="5.5" fill="#1e293b"/></g><path d="M33 63V31" stroke="#6ee7b9" stroke-width="4" stroke-linecap="round" stroke-linejoin="round"/><path d="M33 49c-5.6 0-9.8-4.2-9.8-9.8 5.6 0 9.8 3.5 9.8 9.8m0 0c5.6 0 9.8-4.2 9.8-9.8-5.6 0-9.8 3.5-9.8 9.8" fill="#6ee7b9"/><circle cx="33" cy="9" r="7" fill="#f0abfc"/><circle cx="24.5" cy="15" r="7" fill="#f0abfc"/><circle cx="41.5" cy="15" r="7" fill="#f0abfc"/><circle cx="27.5" cy="24.5" r="7" fill="#f0abfc"/><circle cx="38.5" cy="24.5" r="7" fill="#f0abfc"/><circle cx="33" cy="17.5" r="5.5" fill="#ffffff"/></g><clipPath id="gg010-dbspp-rim"><path d="M9 12q-2 0-2-3V7q0-3 2-3h48q2 0 2 3v2q0 3-2 3h-4v36H13V12Z"/></clipPath><g id="gg010-pot-rim-3df8945f"><path d="M12 15.5q-2 0-2-3v-2q0-3 2-3h48q2 0 2 3v2q0 3-2 3h-4v36H16v-36Z" fill="#1e293b" opacity=".15"/><path d="M9 12q-2 0-2-3V7q0-3 2-3h48q2 0 2 3v2q0 3-2 3h-4v36H13V12Z" fill="#c4b5fd"/><g clip-path="url(#gg010-dbspp-rim)"><path d="M9 12q-2 0-2-3V7q0-3 2-3h48q2 0 2 3v2q0 3-2 3h-4v36H13V12Zm3 3.5q-2 0-2-3v-2q0-3 2-3h48q2 0 2 3v2q0 3-2 3h-4v36H16v-36Z" fill="#ffffff" opacity=".16" fill-rule="evenodd"/><path d="M9 12q-2 0-2-3V7q0-3 2-3h48q2 0 2 3v2q0 3-2 3h-4v36H13V12ZM6 8.5q-2 0-2-3v-2q0-3 2-3h48q2 0 2 3v2q0 3-2 3h-4v36H10v-36Z" fill="#1e293b" opacity=".1" fill-rule="evenodd"/></g></g><g id="gg010-pattern-ring-3df8945f"><circle cx="14" cy="7.5" r="6" stroke="#ffffff" stroke-width="2.5" opacity=".2"/></g><g id="gg010-eyes-close-3df8945f"><circle cx="15" cy="10" r="2.6" fill="#1e293b"/><circle cx="25" cy="10" r="2.6" fill="#1e293b"/></g><g id="gg010-mouth-wavy-3df8945f"><path d="M2 5q4-3 8 0t8 0" stroke="#1e293b" stroke-width="2.5" stroke-linecap="round" stroke-linejoin="round"/></g><g id="gg010-animation-none-3df8945f"></g><clipPath id="gg010-clip-3df8945f"><rect width="100" height="100" rx="50" ry="50"/></clipPath></defs><g clip-path="url(#gg010-clip-3df8945f)"><rect width="100" height="100" fill="#e6e6fa"/><g class="dbsp-a"><g class="dbsp-g"><use transform="translate(17 9)" href="#gg010-plant-flower-3df8945f"/></g><use transform="translate(17 58)" href="#gg010-pot-rim-3df8945f"/><use transform="translate(36 85)" href="#gg010-pattern-ring-3df8945f"/><g class="dbsp-e"><use transform="translate(30 67)" href="#gg010-eyes-close-3df8945f"/></g><use transform="translate(40 81)" href="#gg010-mouth-wavy-3df8945f"/></g><use href="#gg010-animation-none-3df8945f"/></g></svg>