<svg xmlns="http://www.w3.org/2000/svg" viewBox="0 0 100 100" fill="none" shape-rendering="auto" aria-hidden="true" width="128" height="128"><!-- Generated by DiceBear (https://www.dicebear.com) --><metadata xmlns:rdf="http://www.w3.org/1999/02/22-rdf-syntax-ns#" xmlns:xsi="http://www.w3.org/2001/XMLSchema-instance" xmlns:dc="http://purl.org/dc/elements/1.1/" xmlns:dcterms="http://purl.org/dc/terms/"><rdf:RDF><rdf:Description><dc:title>Sprouts</dc:title><dc:creator>DiceBear</dc:creator><dc:source xsi:type="dcterms:URI">https://www.dicebear.com</dc:source><dcterms:license xsi:type="dcterms:URI">https://creativecommons.org/publicdomain/zero/1.0/</dcterms:license><dc:rights>“Sprouts” (https://www.dicebear.com) by “DiceBear”, licensed under “CC0 1.0” (https://creativecommons.org/publicdomain/zero/1.0/)</dc:rights></rdf:Description></rdf:RDF></metadata><defs><clipPath id="gg024-dbsps-ball"><path d="M17 45a16 16 0 1 0 32 0 16 16 0 1 0-32 0"/></clipPath><g id="gg024-plant-ball-c7f11ed8"><g opacity=".15" transform="translate(-14 -5.5)"><path d="M34 54a16 16 0 1 0 32 0 16 16 0 1 0-32 0" fill="#1e293b"/><g clip-path="url(#gg024-dbsps-ball)"><path d="M34 54a16 16 0 1 0 32 0 16 16 0 1 0-32 0m-2-2.5a16 16 0 1 0 32 0 16 16 0 1 0-32 0" fill="#1e293b" fill-rule="evenodd"/></g><circle cx="44" cy="48" r="1.3" fill="#1e293b"/><circle cx="56" cy="48" r="1.3" fill="#1e293b"/><circle cx="50" cy="56" r="1.3" fill="#1e293b"/><circle cx="43" cy="58" r="1.3" fill="#1e293b"/><circle cx="57" cy="60" r="1.3" fill="#1e293b"/><circle cx="50" cy="33.5" r="2.6" fill="#1e293b"/><circle cx="50" cy="29" r="3.2" fill="#1e293b"/><circle cx="45.7" cy="32.1" r="3.2" fill="#1e293b"/><circle cx="47.4" cy="37.1" r="3.2" fill="#1e293b"/><circle cx="52.6" cy="37.1" r="3.2" fill="#1e293b"/><circle cx="54.3" cy="32.1" r="3.2" fill="#1e293b"/></g><path d="M17 45a16 16 0 1 0 32 0 16 16 0 1 0-32 0" fill="#6ee7b9"/><g clip-path="url(#gg024-dbsps-ball)"><path d="M17 45a16 16 0 1 0 32 0 16 16 0 1 0-32 0m-2-2.5a16 16 0 1 0 32 0 16 16 0 1 0-32 0" fill="#1e293b" opacity=".12" fill-rule="evenodd"/></g><circle cx="27" cy="39" r="1.3" fill="#ffffff" opacity=".35"/><circle cx="39" cy="39" r="1.3" fill="#ffffff" opacity=".35"/><circle cx="33" cy="47" r="1.3" fill="#ffffff" opacity=".35"/><circle cx="26" cy="49" r="1.3" fill="#ffffff" opacity=".35"/><circle cx="40" cy="51" r="1.3" fill="#ffffff" opacity=".35"/><circle cx="33" cy="24.5" r="2.6" fill="#ffffff"/><circle cx="33" cy="20" r="3.2" fill="#fcd34d"/><circle cx="28.7" cy="23.1" r="3.2" fill="#fcd34d"/><circle cx="30.4" cy="28.1" r="3.2" fill="#fcd34d"/><circle cx="35.6" cy="28.1" r="3.2" fill="#fcd34d"/><circle cx="37.3" cy="23.1" r="3.2" fill="#fcd34d"/></g><clipPath id="gg024-dbspp-tub"><path d="M3 4h60l-8 44H11Z"/></clipPath><g id="gg024-pot-tub-c7f11ed8"><path d="M6 7.5h60l-8 44H14Z" fill="#1e293b" opacity=".15"/><path d="M3 4h60l-8 44H11Z" fill="#a5b4fc"/><g clip-path="url(#gg024-dbspp-tub)"><path d="M3 4h60l-8 44H11Zm3 3.5h60l-8 44H14Z" fill="#ffffff" opacity=".16" fill-rule="evenodd"/><path d="M3 4h60l-8 44H11ZM0 .5h60l-8 44H8Z" fill="#1e293b" opacity=".1" fill-rule="evenodd"/></g></g><g id="gg024-pattern-speckles-c7f11ed8"><circle cx="3" cy="5" r="1.4" fill="#ffffff" opacity=".3"/><circle cx="9" cy="9.5" r="1.4" fill="#ffffff" opacity=".3"/><circle cx="15" cy="4.5" r="1.4" fill="#ffffff" opacity=".3"/><circle cx="20" cy="9" r="1.4" fill="#ffffff" opacity=".3"/><circle cx="25" cy="5" r="1.4" fill="#ffffff" opacity=".3"/></g><g id="gg024-eyes-happy-c7f11ed8"><path d="M3 12q6-8 12 0m10 0q6-8 12 0" stroke="#1e293b" stroke-width="3" stroke-linecap="round" stroke-linejoin="round"/></g><g id="gg024-mouth-catMouth-c7f11ed8"><path d="M3 4q3.5 3 7 0 3.5 3 7 0" stroke="#1e293b" stroke-width="2.5" stroke-linecap="round" stroke-linejoin="round"/></g><g id="gg024-animation-none-c7f11ed8"></g><clipPath id="gg024-clip-c7f11ed8"><rect width="100" height="100" rx="50" ry="50"/></clipPath></defs><g clip-path="url(#gg024-clip-c7f11ed8)"><rect width="100" height="100" fill="#afeeee"/><g class="dbsp-a"><g class="dbsp-g"><use transform="translate(17 9)" href="#gg024-plant-ball-c7f11ed8"/></g><use transform="translate(17 58)" href="#gg024-pot-tub-c7f11ed8"/><use transform="translate(36 85)" href="#gg024-pattern-speckles-c7f11ed8"/><g class="dbsp-e"><use transform="translate(30 67)" href="#gg024-eyes-happy-c7f11ed8"/></g><use transform="translate(40 81)" href="#gg024-mouth-catMouth-c7f11ed8"/></g><use href="#gg024-animation-none-c7f11ed8"/></g></svg>