<svg xmlns="http://www.w3.org/2000/svg" viewBox="0 0 100 100" fill="none" shape-rendering="auto" aria-hidden="true" width="128" height="128"><!-- Generated by DiceBear (https://www.dicebear.com) --><metadata xmlns:rdf="http://www.w3.org/1999/02/22-rdf-syntax-ns#" xmlns:xsi="http://www.w3.org/2001/XMLSchema-instance" xmlns:dc="http://purl.org/dc/elements/1.1/" xmlns:dcterms="http://purl.org/dc/terms/"><rdf:RDF><rdf:Description><dc:title>Sprouts</dc:title><dc:creator>DiceBear</dc:creator><dc:source xsi:type="dcterms:URI">https://www.dicebear.com</dc:source><dcterms:license xsi:type="dcterms:URI">https://creativecommons.org/publicdomain/zero/1.0/</dcterms:license><dc:rights>“Sprouts” (https://www.dicebear.com) by “DiceBear”, licensed under “CC0 1.0” (https://creativecommons.org/publicdomain/zero/1.0/)</dc:rights></rdf:Description></rdf:RDF></metadata><defs><clipPath id="gg036-dbsps-seed1"><path d="M33 41C31 23 37 7 49 3c2 14-6 32-16 38"/></clipPath><clipPath id="gg036-dbsps-seed2"><path d="M33 41c-7-4-11-10-11-17 7 1 11 7 11 17"/></clipPath><g id="gg036-plant-seedling-4bf42d3b"><g opacity=".15" transform="translate(-14 -5.5)"><path d="M50 72V50" stroke="#1e293b" stroke-width="4" stroke-linecap="round" stroke-linejoin="round"/><path d="M50 50c-2-18 4-34 16-38 2 14-6 32-16 38" fill="#1e293b"/><g clip-path="url(#gg036-dbsps-seed1)"><path d="M50 50c-2-18 4-34 16-38 2 14-6 32-16 38m-2-2.5c-2-18 4-34 16-38 2 14-6 32-16 38" fill="#1e293b" fill-rule="evenodd"/></g><path d="M50 50c-7-4-11-10-11-17 7 1 11 7 11 17" fill="#1e293b"/><g clip-path="url(#gg036-dbsps-seed2)"><path d="M50 50c-7-4-11-10-11-17 7 1 11 7 11 17m-2-2.5c-7-4-11-10-11-17 7 1 11 7 11 17" fill="#1e293b" fill-rule="evenodd"/></g></g><path d="M33 63V41" stroke="#a3e635" stroke-width="4" stroke-linecap="round" stroke-linejoin="round"/><path d="M33 41C31 23 37 7 49 3c2 14-6 32-16 38" fill="#a3e635"/><g clip-path="url(#gg036-dbsps-seed1)"><path d="M33 41C31 23 37 7 49 3c2 14-6 32-16 38m-2-2.5c-2-18 4-34 16-38 2 14-6 32-16 38" fill="#1e293b" opacity=".12" fill-rule="evenodd"/></g><path d="M33 41c-7-4-11-10-11-17 7 1 11 7 11 17" fill="#a3e635"/><g clip-path="url(#gg036-dbsps-seed2)"><path d="M33 41c-7-4-11-10-11-17 7 1 11 7 11 17m-2-2.5c-7-4-11-10-11-17 7 1 11 7 11 17" fill="#1e293b" opacity=".12" fill-rule="evenodd"/></g></g><clipPath id="gg036-dbspp-round"><path d="M33 4C13 4 5 16 5 26c0 12 12 22 28 22s28-10 28-22c0-10-8-22-28-22"/></clipPath><g id="gg036-pot-round-4bf42d3b"><path d="M36 7.5c-20 0-28 12-28 22 0 12 12 22 28 22s28-10 28-22c0-10-8-22-28-22" fill="#1e293b" opacity=".15"/><path d="M33 4C13 4 5 16 5 26c0 12 12 22 28 22s28-10 28-22c0-10-8-22-28-22" fill="#f0abfc"/><g clip-path="url(#gg036-dbspp-round)"><path d="M33 4C13 4 5 16 5 26c0 12 12 22 28 22s28-10 28-22c0-10-8-22-28-22m3 3.5c-20 0-28 12-28 22 0 12 12 22 28 22s28-10 28-22c0-10-8-22-28-22" fill="#ffffff" opacity=".16" fill-rule="evenodd"/><path d="M33 4C13 4 5 16 5 26c0 12 12 22 28 22s28-10 28-22c0-10-8-22-28-22M30 .5c-20 0-28 12-28 22 0 12 12 22 28 22s28-10 28-22c0-10-8-22-28-22" fill="#1e293b" opacity=".1" fill-rule="evenodd"/></g></g><g id="gg036-pattern-chevron-4bf42d3b"><path d="m2 8 4-4 4 4 4-4 4 4 4-4 4 4" stroke="#ffffff" stroke-width="2.5" stroke-linecap="round" stroke-linejoin="round" opacity=".2"/></g><g id="gg036-eyes-dots-4bf42d3b"><circle cx="9" cy="10" r="3.4" fill="#1e293b"/><circle cx="31" cy="10" r="3.4" fill="#1e293b"/></g><g id="gg036-mouth-tongue-4bf42d3b"><path d="M4 3.5q6 4.5 12 0" stroke="#1e293b" stroke-width="2.5" stroke-linecap="round" stroke-linejoin="round"/><path d="M6.5 5.5a3.5 3.5 0 0 0 7 0Z" fill="#fb7185"/></g><g id="gg036-animation-none-4bf42d3b"></g><clipPath id="gg036-clip-4bf42d3b"><rect width="100" height="100" rx="50" ry="50"/></clipPath></defs><g clip-path="url(#gg036-clip-4bf42d3b)"><rect width="100" height="100" fill="#b0e0e6"/><g class="dbsp-a"><g class="dbsp-g"><use transform="translate(17 9)" href="#gg036-plant-seedling-4bf42d3b"/></g><use transform="translate(17 58)" href="#gg036-pot-round-4bf42d3b"/><use transform="translate(36 85)" href="#gg036-pattern-chevron-4bf42d3b"/><g class="dbsp-e"><use transform="translate(30 67)" href="#gg036-eyes-dots-4bf42d3b"/></g><use transform="translate(40 81)" href="#gg036-mouth-tongue-4bf42d3b"/></g><use href="#gg036-animation-none-4bf42d3b"/></g></svg>