<svg xmlns="http://www.w3.org/2000/svg" viewBox="0 0 100 100" fill="none" shape-rendering="auto" aria-hidden="true" width="128" height="128"><!-- Generated by DiceBear (https://www.dicebear.com) --><metadata xmlns:rdf="http://www.w3.org/1999/02/22-rdf-syntax-ns#" xmlns:xsi="http://www.w3.org/2001/XMLSchema-instance" xmlns:dc="http://purl.org/dc/elements/1.1/" xmlns:dcterms="http://purl.org/dc/terms/"><rdf:RDF><rdf:Description><dc:title>Sprouts</dc:title><dc:creator>DiceBear</dc:creator><dc:source xsi:type="dcterms:URI">https://www.dicebear.com</dc:source><dcterms:license xsi:type="dcterms:URI">https://creativecommons.org/publicdomain/zero/1.0/</dcterms:license><dc:rights>“Sprouts” (https://www.dicebear.com) by “DiceBear”, licensed under “CC0 1.0” (https://creativecommons.org/publicdomain/zero/1.0/)</dc:rights></rdf:Description></rdf:RDF></metadata><defs><g id="gg037-plant-palm-4af42ba8"><g opacity=".15" transform="translate(-14 -5.5)"><path d="M50 72V34" stroke="#1e293b" stroke-width="4" stroke-linecap="round" stroke-linejoin="round"/><path d="M50 34c-8-4-16-2-22 6m22-6c8-4 16-2 22 6m-22-6c-4-10-12-14-20-12m20 12c4-10 12-14 20-12" stroke="#1e293b" stroke-width="4" stroke-linecap="round" stroke-linejoin="round" fill="none"/><path d="M50 34V24" stroke="#1e293b" stroke-width="4" stroke-linecap="round" stroke-linejoin="round"/></g><path d="M33 63V25" stroke="#2dd4bf" stroke-width="4" stroke-linecap="round" stroke-linejoin="round"/><path d="M33 25c-8-4-16-2-22 6m22-6c8-4 16-2 22 6m-22-6c-4-10-12-14-20-12m20 12c4-10 12-14 20-12" stroke="#2dd4bf" stroke-width="4" stroke-linecap="round" stroke-linejoin="round" fill="none"/><path d="M33 25V15" stroke="#2dd4bf" stroke-width="4" stroke-linecap="round" stroke-linejoin="round"/></g><clipPath id="gg037-dbspp-rim"><path d="M9 12q-2 0-2-3V7q0-3 2-3h48q2 0 2 3v2q0 3-2 3h-4v36H13V12Z"/></clipPath><g id="gg037-pot-rim-4af42ba8"><path d="M12 15.5q-2 0-2-3v-2q0-3 2-3h48q2 0 2 3v2q0 3-2 3h-4v36H16v-36Z" fill="#1e293b" opacity=".15"/><path d="M9 12q-2 0-2-3V7q0-3 2-3h48q2 0 2 3v2q0 3-2 3h-4v36H13V12Z" fill="#e2e8f0"/><g clip-path="url(#gg037-dbspp-rim)"><path d="M9 12q-2 0-2-3V7q0-3 2-3h48q2 0 2 3v2q0 3-2 3h-4v36H13V12Zm3 3.5q-2 0-2-3v-2q0-3 2-3h48q2 0 2 3v2q0 3-2 3h-4v36H16v-36Z" fill="#ffffff" opacity=".16" fill-rule="evenodd"/><path d="M9 12q-2 0-2-3V7q0-3 2-3h48q2 0 2 3v2q0 3-2 3h-4v36H13V12ZM6 8.5q-2 0-2-3v-2q0-3 2-3h48q2 0 2 3v2q0 3-2 3h-4v36H10v-36Z" fill="#1e293b" opacity=".1" fill-rule="evenodd"/></g></g><g id="gg037-eyes-sideeye-4af42ba8"><circle cx="9" cy="10" r="6" fill="#ffffff"/><circle cx="31" cy="10" r="6" fill="#ffffff"/><circle cx="12" cy="10" r="2.6" fill="#1e293b"/><circle cx="34" cy="10" r="2.6" fill="#1e293b"/></g><g id="gg037-mouth-tooth-4af42ba8"><path d="M4 4h12" stroke="#1e293b" stroke-width="3" stroke-linecap="round" stroke-linejoin="round"/><rect x="7" y="4" width="6" height="5" rx="1.2" fill="#ffffff"/></g><g id="gg037-animation-none-4af42ba8"></g><clipPath id="gg037-clip-4af42ba8"><rect width="100" height="100" rx="50" ry="50"/></clipPath></defs><g clip-path="url(#gg037-clip-4af42ba8)"><rect width="100" height="100" fill="#ffdab9"/><g class="dbsp-a"><g class="dbsp-g"><use transform="translate(17 9)" href="#gg037-plant-palm-4af42ba8"/></g><use transform="translate(17 58)" href="#gg037-pot-rim-4af42ba8"/><g class="dbsp-e"><use transform="translate(30 67)" href="#gg037-eyes-sideeye-4af42ba8"/></g><use transform="translate(40 81)" href="#gg037-mouth-tooth-4af42ba8"/></g><use href="#gg037-animation-none-4af42ba8"/></g></svg>