<svg xmlns="http://www.w3.org/2000/svg" viewBox="0 0 100 100" fill="none" shape-rendering="auto" aria-hidden="true" width="128" height="128"><!-- Generated by DiceBear (https://www.dicebear.com) --><metadata xmlns:rdf="http://www.w3.org/1999/02/22-rdf-syntax-ns#" xmlns:xsi="http://www.w3.org/2001/XMLSchema-instance" xmlns:dc="http://purl.org/dc/elements/1.1/" xmlns:dcterms="http://purl.org/dc/terms/"><rdf:RDF><rdf:Description><dc:title>Sprouts</dc:title><dc:creator>DiceBear</dc:creator><dc:source xsi:type="dcterms:URI">https://www.dicebear.com</dc:source><dcterms:license xsi:type="dcterms:URI">https://creativecommons.org/publicdomain/zero/1.0/</dcterms:license><dc:rights>“Sprouts” (https://www.dicebear.com) by “DiceBear”, licensed under “CC0 1.0” (https://creativecommons.org/publicdomain/zero/1.0/)</dc:rights></rdf:Description></rdf:RDF></metadata><defs><g id="gg038-plant-tall-49f42a15"><g opacity=".15" transform="translate(-14 -5.5)"><path d="M50 72V16" stroke="#1e293b" stroke-width="4" stroke-linecap="round" stroke-linejoin="round"/><path d="M50 34c-6 0-10-4-10-10 6 0 10 4 10 10m0 12c6 0 10-4 10-10-6 0-10 4-10 10m0 12c-6 0-10-4-10-10 6 0 10 4 10 10" fill="#1e293b"/></g><path d="M33 63V7" stroke="#22c55e" stroke-width="4" stroke-linecap="round" stroke-linejoin="round"/><path d="M33 25c-6 0-10-4-10-10 6 0 10 4 10 10m0 12c6 0 10-4 10-10-6 0-10 4-10 10m0 12c-6 0-10-4-10-10 6 0 10 4 10 10" fill="#22c55e"/></g><clipPath id="gg038-dbspp-tub"><path d="M3 4h60l-8 44H11Z"/></clipPath><g id="gg038-pot-tub-49f42a15"><path d="M6 7.5h60l-8 44H14Z" fill="#1e293b" opacity=".15"/><path d="M3 4h60l-8 44H11Z" fill="#fda4af"/><g clip-path="url(#gg038-dbspp-tub)"><path d="M3 4h60l-8 44H11Zm3 3.5h60l-8 44H14Z" fill="#ffffff" opacity=".16" fill-rule="evenodd"/><path d="M3 4h60l-8 44H11ZM0 .5h60l-8 44H8Z" fill="#1e293b" opacity=".1" fill-rule="evenodd"/></g></g><g id="gg038-eyes-sideeye-49f42a15"><circle cx="9" cy="10" r="6" fill="#ffffff"/><circle cx="31" cy="10" r="6" fill="#ffffff"/><circle cx="12" cy="10" r="2.6" fill="#1e293b"/><circle cx="34" cy="10" r="2.6" fill="#1e293b"/></g><g id="gg038-mouth-frown-49f42a15"><path d="M2 8q8-7 16 0" stroke="#1e293b" stroke-width="3" stroke-linecap="round" stroke-linejoin="round"/></g><g id="gg038-animation-none-49f42a15"></g><clipPath id="gg038-clip-49f42a15"><rect width="100" height="100" rx="50" ry="50"/></clipPath></defs><g clip-path="url(#gg038-clip-49f42a15)"><rect width="100" height="100" fill="#dda0dd"/><g class="dbsp-a"><g class="dbsp-g"><use transform="translate(17 9)" href="#gg038-plant-tall-49f42a15"/></g><use transform="translate(17 58)" href="#gg038-pot-tub-49f42a15"/><g class="dbsp-e"><use transform="translate(30 67)" href="#gg038-eyes-sideeye-49f42a15"/></g><use transform="translate(40 81)" href="#gg038-mouth-frown-49f42a15"/></g><use href="#gg038-animation-none-49f42a15"/></g></svg>