<svg xmlns="http://www.w3.org/2000/svg" viewBox="0 0 100 100" fill="none" shape-rendering="auto" aria-hidden="true" width="128" height="128"><!-- Generated by DiceBear (https://www.dicebear.com) --><metadata xmlns:rdf="http://www.w3.org/1999/02/22-rdf-syntax-ns#" xmlns:xsi="http://www.w3.org/2001/XMLSchema-instance" xmlns:dc="http://purl.org/dc/elements/1.1/" xmlns:dcterms="http://purl.org/dc/terms/"><rdf:RDF><rdf:Description><dc:title>Sprouts</dc:title><dc:creator>DiceBear</dc:creator><dc:source xsi:type="dcterms:URI">https://www.dicebear.com</dc:source><dcterms:license xsi:type="dcterms:URI">https://creativecommons.org/publicdomain/zero/1.0/</dcterms:license><dc:rights>“Sprouts” (https://www.dicebear.com) by “DiceBear”, licensed under “CC0 1.0” (https://creativecommons.org/publicdomain/zero/1.0/)</dc:rights></rdf:Description></rdf:RDF></metadata><defs><g id="gg043-plant-grass-beec937f"><g opacity=".15" transform="translate(-14 -5.5)"><path d="M44 72c-2-12-4-20-8-28m14 28V38m6 34c2-12 4-20 8-28M47 72c-2-10-4-16-7-20m13 20c2-10 4-16 7-20" stroke="#1e293b" stroke-width="4" stroke-linecap="round" stroke-linejoin="round" fill="none"/></g><path d="M27 63c-2-12-4-20-8-28m14 28V29m6 34c2-12 4-20 8-28M30 63c-2-10-4-16-7-20m13 20c2-10 4-16 7-20" stroke="#10b981" stroke-width="4" stroke-linecap="round" stroke-linejoin="round" fill="none"/></g><clipPath id="gg043-dbspp-cylinder"><path d="M11 4h44v40q0 4-4 4H15q-4 0-4-4Z"/></clipPath><g id="gg043-pot-cylinder-beec937f"><path d="M14 7.5h44v40q0 4-4 4H18q-4 0-4-4Z" fill="#1e293b" opacity=".15"/><path d="M11 4h44v40q0 4-4 4H15q-4 0-4-4Z" fill="#f0abfc"/><g clip-path="url(#gg043-dbspp-cylinder)"><path d="M11 4h44v40q0 4-4 4H15q-4 0-4-4Zm3 3.5h44v40q0 4-4 4H18q-4 0-4-4Z" fill="#ffffff" opacity=".16" fill-rule="evenodd"/><path d="M11 4h44v40q0 4-4 4H15q-4 0-4-4ZM8 .5h44v40q0 4-4 4H12q-4 0-4-4Z" fill="#1e293b" opacity=".1" fill-rule="evenodd"/></g></g><g id="gg043-cheeks-freckles-beec937f"><circle cx="2.5" cy="3" r="1.2" fill="#ffffff" opacity=".35"/><circle cx="6" cy="1.5" r="1.2" fill="#ffffff" opacity=".35"/><circle cx="4.5" cy="5.5" r="1.2" fill="#ffffff" opacity=".35"/><circle cx="39.5" cy="3" r="1.2" fill="#ffffff" opacity=".35"/><circle cx="36" cy="1.5" r="1.2" fill="#ffffff" opacity=".35"/><circle cx="37.5" cy="5.5" r="1.2" fill="#ffffff" opacity=".35"/></g><g id="gg043-eyes-round-beec937f"><circle cx="9" cy="10" r="6" fill="#ffffff"/><circle cx="31" cy="10" r="6" fill="#ffffff"/><circle cx="9" cy="10" r="2.6" fill="#1e293b"/><circle cx="31" cy="10" r="2.6" fill="#1e293b"/></g><g id="gg043-mouth-line-beec937f"><path d="M4 5h12" stroke="#1e293b" stroke-width="3" stroke-linecap="round" stroke-linejoin="round"/></g><g id="gg043-animation-none-beec937f"></g><clipPath id="gg043-clip-beec937f"><rect width="100" height="100" rx="50" ry="50"/></clipPath></defs><g clip-path="url(#gg043-clip-beec937f)"><rect width="100" height="100" fill="#98ff98"/><g class="dbsp-a"><g class="dbsp-g"><use transform="translate(17 9)" href="#gg043-plant-grass-beec937f"/></g><use transform="translate(17 58)" href="#gg043-pot-cylinder-beec937f"/><use transform="translate(29 80)" href="#gg043-cheeks-freckles-beec937f"/><g class="dbsp-e"><use transform="translate(30 67)" href="#gg043-eyes-round-beec937f"/></g><use transform="translate(40 81)" href="#gg043-mouth-line-beec937f"/></g><use href="#gg043-animation-none-beec937f"/></g></svg>