<svg xmlns="http://www.w3.org/2000/svg" viewBox="0 0 100 100" fill="none" shape-rendering="auto" aria-hidden="true" width="128" height="128"><!-- Generated by DiceBear (https://www.dicebear.com) --><metadata xmlns:rdf="http://www.w3.org/1999/02/22-rdf-syntax-ns#" xmlns:xsi="http://www.w3.org/2001/XMLSchema-instance" xmlns:dc="http://purl.org/dc/elements/1.1/" xmlns:dcterms="http://purl.org/dc/terms/"><rdf:RDF><rdf:Description><dc:title>Sprouts</dc:title><dc:creator>DiceBear</dc:creator><dc:source xsi:type="dcterms:URI">https://www.dicebear.com</dc:source><dcterms:license xsi:type="dcterms:URI">https://creativecommons.org/publicdomain/zero/1.0/</dcterms:license><dc:rights>“Sprouts” (https://www.dicebear.com) by “DiceBear”, licensed under “CC0 1.0” (https://creativecommons.org/publicdomain/zero/1.0/)</dc:rights></rdf:Description></rdf:RDF></metadata><defs><g id="gg046-plant-grass-b9ec8ba0"><g opacity=".15" transform="translate(-14 -5.5)"><path d="M44 72c-2-12-4-20-8-28m14 28V38m6 34c2-12 4-20 8-28M47 72c-2-10-4-16-7-20m13 20c2-10 4-16 7-20" stroke="#1e293b" stroke-width="4" stroke-linecap="round" stroke-linejoin="round" fill="none"/></g><path d="M27 63c-2-12-4-20-8-28m14 28V29m6 34c2-12 4-20 8-28M30 63c-2-10-4-16-7-20m13 20c2-10 4-16 7-20" stroke="#34d399" stroke-width="4" stroke-linecap="round" stroke-linejoin="round" fill="none"/></g><clipPath id="gg046-dbspp-cylinder"><path d="M11 4h44v40q0 4-4 4H15q-4 0-4-4Z"/></clipPath><g id="gg046-pot-cylinder-b9ec8ba0"><path d="M14 7.5h44v40q0 4-4 4H18q-4 0-4-4Z" fill="#1e293b" opacity=".15"/><path d="M11 4h44v40q0 4-4 4H15q-4 0-4-4Z" fill="#5eead4"/><g clip-path="url(#gg046-dbspp-cylinder)"><path d="M11 4h44v40q0 4-4 4H15q-4 0-4-4Zm3 3.5h44v40q0 4-4 4H18q-4 0-4-4Z" fill="#ffffff" opacity=".16" fill-rule="evenodd"/><path d="M11 4h44v40q0 4-4 4H15q-4 0-4-4ZM8 .5h44v40q0 4-4 4H12q-4 0-4-4Z" fill="#1e293b" opacity=".1" fill-rule="evenodd"/></g></g><g id="gg046-pattern-band-b9ec8ba0"><rect x="1" y="4.5" width="26" height="5.5" rx="2.75" fill="#ffffff" opacity=".18"/></g><g id="gg046-eyes-wide-b9ec8ba0"><ellipse cx="9" cy="10" rx="5.5" ry="7" fill="#ffffff"/><ellipse cx="31" cy="10" rx="5.5" ry="7" fill="#ffffff"/><circle cx="9" cy="10" r="2.4" fill="#1e293b"/><circle cx="31" cy="10" r="2.4" fill="#1e293b"/></g><g id="gg046-mouth-line-b9ec8ba0"><path d="M4 5h12" stroke="#1e293b" stroke-width="3" stroke-linecap="round" stroke-linejoin="round"/></g><g id="gg046-animation-none-b9ec8ba0"></g><clipPath id="gg046-clip-b9ec8ba0"><rect width="100" height="100" rx="50" ry="50"/></clipPath></defs><g clip-path="url(#gg046-clip-b9ec8ba0)"><rect width="100" height="100" fill="#dda0dd"/><g class="dbsp-a"><g class="dbsp-g"><use transform="translate(17 9)" href="#gg046-plant-grass-b9ec8ba0"/></g><use transform="translate(17 58)" href="#gg046-pot-cylinder-b9ec8ba0"/><use transform="translate(36 85)" href="#gg046-pattern-band-b9ec8ba0"/><g class="dbsp-e"><use transform="translate(30 67)" href="#gg046-eyes-wide-b9ec8ba0"/></g><use transform="translate(40 81)" href="#gg046-mouth-line-b9ec8ba0"/></g><use href="#gg046-animation-none-b9ec8ba0"/></g></svg>