<svg xmlns="http://www.w3.org/2000/svg" viewBox="0 0 100 100" fill="none" shape-rendering="auto" aria-hidden="true" width="128" height="128"><!-- Generated by DiceBear (https://www.dicebear.com) --><metadata xmlns:rdf="http://www.w3.org/1999/02/22-rdf-syntax-ns#" xmlns:xsi="http://www.w3.org/2001/XMLSchema-instance" xmlns:dc="http://purl.org/dc/elements/1.1/" xmlns:dcterms="http://purl.org/dc/terms/"><rdf:RDF><rdf:Description><dc:title>Sprouts</dc:title><dc:creator>DiceBear</dc:creator><dc:source xsi:type="dcterms:URI">https://www.dicebear.com</dc:source><dcterms:license xsi:type="dcterms:URI">https://creativecommons.org/publicdomain/zero/1.0/</dcterms:license><dc:rights>“Sprouts” (https://www.dicebear.com) by “DiceBear”, licensed under “CC0 1.0” (https://creativecommons.org/publicdomain/zero/1.0/)</dc:rights></rdf:Description></rdf:RDF></metadata><defs><clipPath id="gg065-dbsps-tulip"><path d="M23 25c0-12 4-16 10-10 6-6 10-2 10 10q0 8-10 8t-10-8"/></clipPath><g id="gg065-plant-tulip-38e7435f"><g opacity=".15" transform="translate(-14 -5.5)"><path d="M50 72V42" stroke="#1e293b" stroke-width="4" stroke-linecap="round" stroke-linejoin="round"/><path d="M50 60c-6.4 0-11.2-4.8-11.2-11.2 6.4 0 11.2 4 11.2 11.2m0 0c6.4 0 11.2-4.8 11.2-11.2-6.4 0-11.2 4-11.2 11.2M40 34c0-12 4-16 10-10 6-6 10-2 10 10q0 8-10 8t-10-8" fill="#1e293b"/><g clip-path="url(#gg065-dbsps-tulip)"><path d="M40 34c0-12 4-16 10-10 6-6 10-2 10 10q0 8-10 8t-10-8m-2-2.5c0-12 4-16 10-10 6-6 10-2 10 10q0 8-10 8t-10-8" fill="#1e293b" fill-rule="evenodd"/></g></g><path d="M33 63V33" stroke="#2dd4bf" stroke-width="4" stroke-linecap="round" stroke-linejoin="round"/><path d="M33 51c-6.4 0-11.2-4.8-11.2-11.2 6.4 0 11.2 4 11.2 11.2m0 0c6.4 0 11.2-4.8 11.2-11.2-6.4 0-11.2 4-11.2 11.2" fill="#2dd4bf"/><path d="M23 25c0-12 4-16 10-10 6-6 10-2 10 10q0 8-10 8t-10-8" fill="#c4b5fd"/><g clip-path="url(#gg065-dbsps-tulip)"><path d="M23 25c0-12 4-16 10-10 6-6 10-2 10 10q0 8-10 8t-10-8m-2-2.5c0-12 4-16 10-10 6-6 10-2 10 10q0 8-10 8t-10-8" fill="#1e293b" opacity=".12" fill-rule="evenodd"/></g></g><clipPath id="gg065-dbspp-rim"><path d="M9 12q-2 0-2-3V7q0-3 2-3h48q2 0 2 3v2q0 3-2 3h-4v36H13V12Z"/></clipPath><g id="gg065-pot-rim-38e7435f"><path d="M12 15.5q-2 0-2-3v-2q0-3 2-3h48q2 0 2 3v2q0 3-2 3h-4v36H16v-36Z" fill="#1e293b" opacity=".15"/><path d="M9 12q-2 0-2-3V7q0-3 2-3h48q2 0 2 3v2q0 3-2 3h-4v36H13V12Z" fill="#6ee7b9"/><g clip-path="url(#gg065-dbspp-rim)"><path d="M9 12q-2 0-2-3V7q0-3 2-3h48q2 0 2 3v2q0 3-2 3h-4v36H13V12Zm3 3.5q-2 0-2-3v-2q0-3 2-3h48q2 0 2 3v2q0 3-2 3h-4v36H16v-36Z" fill="#ffffff" opacity=".16" fill-rule="evenodd"/><path d="M9 12q-2 0-2-3V7q0-3 2-3h48q2 0 2 3v2q0 3-2 3h-4v36H13V12ZM6 8.5q-2 0-2-3v-2q0-3 2-3h48q2 0 2 3v2q0 3-2 3h-4v36H10v-36Z" fill="#1e293b" opacity=".1" fill-rule="evenodd"/></g></g><g id="gg065-eyes-sideeye-38e7435f"><circle cx="9" cy="10" r="6" fill="#ffffff"/><circle cx="31" cy="10" r="6" fill="#ffffff"/><circle cx="12" cy="10" r="2.6" fill="#1e293b"/><circle cx="34" cy="10" r="2.6" fill="#1e293b"/></g><g id="gg065-mouth-tongue-38e7435f"><path d="M4 3.5q6 4.5 12 0" stroke="#1e293b" stroke-width="2.5" stroke-linecap="round" stroke-linejoin="round"/><path d="M6.5 5.5a3.5 3.5 0 0 0 7 0Z" fill="#fb7185"/></g><g id="gg065-animation-none-38e7435f"></g><clipPath id="gg065-clip-38e7435f"><rect width="100" height="100" rx="50" ry="50"/></clipPath></defs><g clip-path="url(#gg065-clip-38e7435f)"><rect width="100" height="100" fill="#ffb6c1"/><g class="dbsp-a"><g class="dbsp-g"><use transform="translate(17 9)" href="#gg065-plant-tulip-38e7435f"/></g><use transform="translate(17 58)" href="#gg065-pot-rim-38e7435f"/><g class="dbsp-e"><use transform="translate(30 67)" href="#gg065-eyes-sideeye-38e7435f"/></g><use transform="translate(40 81)" href="#gg065-mouth-tongue-38e7435f"/></g><use href="#gg065-animation-none-38e7435f"/></g></svg>