<svg xmlns="http://www.w3.org/2000/svg" viewBox="0 0 100 100" fill="none" shape-rendering="auto" aria-hidden="true" width="128" height="128"><!-- Generated by DiceBear (https://www.dicebear.com) --><metadata xmlns:rdf="http://www.w3.org/1999/02/22-rdf-syntax-ns#" xmlns:xsi="http://www.w3.org/2001/XMLSchema-instance" xmlns:dc="http://purl.org/dc/elements/1.1/" xmlns:dcterms="http://purl.org/dc/terms/"><rdf:RDF><rdf:Description><dc:title>Sprouts</dc:title><dc:creator>DiceBear</dc:creator><dc:source xsi:type="dcterms:URI">https://www.dicebear.com</dc:source><dcterms:license xsi:type="dcterms:URI">https://creativecommons.org/publicdomain/zero/1.0/</dcterms:license><dc:rights>“Sprouts” (https://www.dicebear.com) by “DiceBear”, licensed under “CC0 1.0” (https://creativecommons.org/publicdomain/zero/1.0/)</dc:rights></rdf:Description></rdf:RDF></metadata><defs><clipPath id="gg069-dbsps-ball"><path d="M17 45a16 16 0 1 0 32 0 16 16 0 1 0-32 0"/></clipPath><g id="gg069-plant-ball-3ce749ab"><g opacity=".15" transform="translate(-14 -5.5)"><path d="M34 54a16 16 0 1 0 32 0 16 16 0 1 0-32 0" fill="#1e293b"/><g clip-path="url(#gg069-dbsps-ball)"><path d="M34 54a16 16 0 1 0 32 0 16 16 0 1 0-32 0m-2-2.5a16 16 0 1 0 32 0 16 16 0 1 0-32 0" fill="#1e293b" fill-rule="evenodd"/></g><circle cx="44" cy="48" r="1.3" fill="#1e293b"/><circle cx="56" cy="48" r="1.3" fill="#1e293b"/><circle cx="50" cy="56" r="1.3" fill="#1e293b"/><circle cx="43" cy="58" r="1.3" fill="#1e293b"/><circle cx="57" cy="60" r="1.3" fill="#1e293b"/><circle cx="50" cy="33.5" r="2.6" fill="#1e293b"/><circle cx="50" cy="29" r="3.2" fill="#1e293b"/><circle cx="45.7" cy="32.1" r="3.2" fill="#1e293b"/><circle cx="47.4" cy="37.1" r="3.2" fill="#1e293b"/><circle cx="52.6" cy="37.1" r="3.2" fill="#1e293b"/><circle cx="54.3" cy="32.1" r="3.2" fill="#1e293b"/></g><path d="M17 45a16 16 0 1 0 32 0 16 16 0 1 0-32 0" fill="#22c55e"/><g clip-path="url(#gg069-dbsps-ball)"><path d="M17 45a16 16 0 1 0 32 0 16 16 0 1 0-32 0m-2-2.5a16 16 0 1 0 32 0 16 16 0 1 0-32 0" fill="#1e293b" opacity=".12" fill-rule="evenodd"/></g><circle cx="27" cy="39" r="1.3" fill="#ffffff" opacity=".35"/><circle cx="39" cy="39" r="1.3" fill="#ffffff" opacity=".35"/><circle cx="33" cy="47" r="1.3" fill="#ffffff" opacity=".35"/><circle cx="26" cy="49" r="1.3" fill="#ffffff" opacity=".35"/><circle cx="40" cy="51" r="1.3" fill="#ffffff" opacity=".35"/><circle cx="33" cy="24.5" r="2.6" fill="#ffffff"/><circle cx="33" cy="20" r="3.2" fill="#fda4af"/><circle cx="28.7" cy="23.1" r="3.2" fill="#fda4af"/><circle cx="30.4" cy="28.1" r="3.2" fill="#fda4af"/><circle cx="35.6" cy="28.1" r="3.2" fill="#fda4af"/><circle cx="37.3" cy="23.1" r="3.2" fill="#fda4af"/></g><clipPath id="gg069-dbspp-bag"><path d="M13 6c0-2 2-2 4-2h32c2 0 4 0 4 2 3 14 3 28-1 36q-2 6-10 6H24q-8 0-10-6c-4-8-4-22-1-36"/></clipPath><g id="gg069-pot-bag-3ce749ab"><path d="M16 9.5c0-2 2-2 4-2h32c2 0 4 0 4 2 3 14 3 28-1 36q-2 6-10 6H27q-8 0-10-6c-4-8-4-22-1-36" fill="#1e293b" opacity=".15"/><path d="M13 6c0-2 2-2 4-2h32c2 0 4 0 4 2 3 14 3 28-1 36q-2 6-10 6H24q-8 0-10-6c-4-8-4-22-1-36" fill="#bef264"/><g clip-path="url(#gg069-dbspp-bag)"><path d="M13 6c0-2 2-2 4-2h32c2 0 4 0 4 2 3 14 3 28-1 36q-2 6-10 6H24q-8 0-10-6c-4-8-4-22-1-36m3 3.5c0-2 2-2 4-2h32c2 0 4 0 4 2 3 14 3 28-1 36q-2 6-10 6H27q-8 0-10-6c-4-8-4-22-1-36" fill="#ffffff" opacity=".16" fill-rule="evenodd"/><path d="M13 6c0-2 2-2 4-2h32c2 0 4 0 4 2 3 14 3 28-1 36q-2 6-10 6H24q-8 0-10-6c-4-8-4-22-1-36m-3-3.5c0-2 2-2 4-2h32c2 0 4 0 4 2 3 14 3 28-1 36q-2 6-10 6H21q-8 0-10-6c-4-8-4-22-1-36" fill="#1e293b" opacity=".1" fill-rule="evenodd"/></g></g><g id="gg069-eyes-happy-3ce749ab"><path d="M3 12q6-8 12 0m10 0q6-8 12 0" stroke="#1e293b" stroke-width="3" stroke-linecap="round" stroke-linejoin="round"/></g><g id="gg069-mouth-grin-3ce749ab"><path d="M1.5 3a8.5 8.5 0 0 0 17 0Z" fill="#1e293b"/><path d="M6 7a4 4 0 0 0 8 0Z" fill="#fb7185"/></g><g id="gg069-animation-none-3ce749ab"></g><clipPath id="gg069-clip-3ce749ab"><rect width="100" height="100" rx="50" ry="50"/></clipPath></defs><g clip-path="url(#gg069-clip-3ce749ab)"><rect width="100" height="100" fill="#ffdab9"/><g class="dbsp-a"><g class="dbsp-g"><use transform="translate(17 9)" href="#gg069-plant-ball-3ce749ab"/></g><use transform="translate(17 58)" href="#gg069-pot-bag-3ce749ab"/><g class="dbsp-e"><use transform="translate(30 67)" href="#gg069-eyes-happy-3ce749ab"/></g><use transform="translate(40 81)" href="#gg069-mouth-grin-3ce749ab"/></g><use href="#gg069-animation-none-3ce749ab"/></g></svg>