<svg xmlns="http://www.w3.org/2000/svg" viewBox="0 0 100 100" fill="none" shape-rendering="auto" aria-hidden="true" width="128" height="128"><!-- Generated by DiceBear (https://www.dicebear.com) --><metadata xmlns:rdf="http://www.w3.org/1999/02/22-rdf-syntax-ns#" xmlns:xsi="http://www.w3.org/2001/XMLSchema-instance" xmlns:dc="http://purl.org/dc/elements/1.1/" xmlns:dcterms="http://purl.org/dc/terms/"><rdf:RDF><rdf:Description><dc:title>Sprouts</dc:title><dc:creator>DiceBear</dc:creator><dc:source xsi:type="dcterms:URI">https://www.dicebear.com</dc:source><dcterms:license xsi:type="dcterms:URI">https://creativecommons.org/publicdomain/zero/1.0/</dcterms:license><dc:rights>“Sprouts” (https://www.dicebear.com) by “DiceBear”, licensed under “CC0 1.0” (https://creativecommons.org/publicdomain/zero/1.0/)</dc:rights></rdf:Description></rdf:RDF></metadata><defs><g id="gg084-plant-buds-4c09f38a"><g opacity=".15" transform="translate(-14 -5.5)"><path d="M46 72c-2-14-3-24-7-31m15 31c2-16 3-26 7-35" stroke="#1e293b" stroke-width="4" stroke-linecap="round" stroke-linejoin="round" fill="none"/><path d="M50 56c-4.8 0-8.4-3.6-8.4-8.4 4.8 0 8.4 3 8.4 8.4m0 0c4.8 0 8.4-3.6 8.4-8.4-4.8 0-8.4 3-8.4 8.4" fill="#1e293b"/><circle cx="38" cy="37" r="4.5" fill="#1e293b"/><circle cx="62" cy="33" r="4.5" fill="#1e293b"/></g><path d="M29 63c-2-14-3-24-7-31m15 31c2-16 3-26 7-35" stroke="#22c55e" stroke-width="4" stroke-linecap="round" stroke-linejoin="round" fill="none"/><path d="M33 47c-4.8 0-8.4-3.6-8.4-8.4 4.8 0 8.4 3 8.4 8.4m0 0c4.8 0 8.4-3.6 8.4-8.4-4.8 0-8.4 3-8.4 8.4" fill="#22c55e"/><circle cx="21" cy="28" r="4.5" fill="#f0abfc"/><circle cx="45" cy="24" r="4.5" fill="#f0abfc"/></g><clipPath id="gg084-dbspp-rim"><path d="M9 12q-2 0-2-3V7q0-3 2-3h48q2 0 2 3v2q0 3-2 3h-4v36H13V12Z"/></clipPath><g id="gg084-pot-rim-4c09f38a"><path d="M12 15.5q-2 0-2-3v-2q0-3 2-3h48q2 0 2 3v2q0 3-2 3h-4v36H16v-36Z" fill="#1e293b" opacity=".15"/><path d="M9 12q-2 0-2-3V7q0-3 2-3h48q2 0 2 3v2q0 3-2 3h-4v36H13V12Z" fill="#e2e8f0"/><g clip-path="url(#gg084-dbspp-rim)"><path d="M9 12q-2 0-2-3V7q0-3 2-3h48q2 0 2 3v2q0 3-2 3h-4v36H13V12Zm3 3.5q-2 0-2-3v-2q0-3 2-3h48q2 0 2 3v2q0 3-2 3h-4v36H16v-36Z" fill="#ffffff" opacity=".16" fill-rule="evenodd"/><path d="M9 12q-2 0-2-3V7q0-3 2-3h48q2 0 2 3v2q0 3-2 3h-4v36H13V12ZM6 8.5q-2 0-2-3v-2q0-3 2-3h48q2 0 2 3v2q0 3-2 3h-4v36H10v-36Z" fill="#1e293b" opacity=".1" fill-rule="evenodd"/></g></g><g id="gg084-eyes-round-4c09f38a"><circle cx="9" cy="10" r="6" fill="#ffffff"/><circle cx="31" cy="10" r="6" fill="#ffffff"/><circle cx="9" cy="10" r="2.6" fill="#1e293b"/><circle cx="31" cy="10" r="2.6" fill="#1e293b"/></g><g id="gg084-mouth-open-4c09f38a"><ellipse cx="10" cy="5.5" rx="5" ry="5.5" fill="#1e293b"/><ellipse cx="10" cy="8" rx="2.7" ry="2" fill="#fb7185"/></g><g id="gg084-animation-none-4c09f38a"></g><clipPath id="gg084-clip-4c09f38a"><rect width="100" height="100" rx="50" ry="50"/></clipPath></defs><g clip-path="url(#gg084-clip-4c09f38a)"><rect width="100" height="100" fill="#b0e0e6"/><g class="dbsp-a"><g class="dbsp-g"><use transform="translate(17 9)" href="#gg084-plant-buds-4c09f38a"/></g><use transform="translate(17 58)" href="#gg084-pot-rim-4c09f38a"/><g class="dbsp-e"><use transform="translate(30 67)" href="#gg084-eyes-round-4c09f38a"/></g><use transform="translate(40 81)" href="#gg084-mouth-open-4c09f38a"/></g><use href="#gg084-animation-none-4c09f38a"/></g></svg>