<svg xmlns="http://www.w3.org/2000/svg" viewBox="0 0 100 100" fill="none" shape-rendering="auto" aria-hidden="true" width="128" height="128"><!-- Generated by DiceBear (https://www.dicebear.com) --><metadata xmlns:rdf="http://www.w3.org/1999/02/22-rdf-syntax-ns#" xmlns:xsi="http://www.w3.org/2001/XMLSchema-instance" xmlns:dc="http://purl.org/dc/elements/1.1/" xmlns:dcterms="http://purl.org/dc/terms/"><rdf:RDF><rdf:Description><dc:title>Sprouts</dc:title><dc:creator>DiceBear</dc:creator><dc:source xsi:type="dcterms:URI">https://www.dicebear.com</dc:source><dcterms:license xsi:type="dcterms:URI">https://creativecommons.org/publicdomain/zero/1.0/</dcterms:license><dc:rights>“Sprouts” (https://www.dicebear.com) by “DiceBear”, licensed under “CC0 1.0” (https://creativecommons.org/publicdomain/zero/1.0/)</dc:rights></rdf:Description></rdf:RDF></metadata><defs><g id="gg087-plant-flower-4b09f1f7"><g opacity=".15" transform="translate(-14 -5.5)"><path d="M50 72V40" stroke="#1e293b" stroke-width="4" stroke-linecap="round" stroke-linejoin="round"/><path d="M50 58c-5.6 0-9.8-4.2-9.8-9.8 5.6 0 9.8 3.5 9.8 9.8m0 0c5.6 0 9.8-4.2 9.8-9.8-5.6 0-9.8 3.5-9.8 9.8" fill="#1e293b"/><circle cx="50" cy="18" r="7" fill="#1e293b"/><circle cx="41.5" cy="24" r="7" fill="#1e293b"/><circle cx="58.5" cy="24" r="7" fill="#1e293b"/><circle cx="44.5" cy="33.5" r="7" fill="#1e293b"/><circle cx="55.5" cy="33.5" r="7" fill="#1e293b"/><circle cx="50" cy="26.5" r="5.5" fill="#1e293b"/></g><path d="M33 63V31" stroke="#22c55e" stroke-width="4" stroke-linecap="round" stroke-linejoin="round"/><path d="M33 49c-5.6 0-9.8-4.2-9.8-9.8 5.6 0 9.8 3.5 9.8 9.8m0 0c5.6 0 9.8-4.2 9.8-9.8-5.6 0-9.8 3.5-9.8 9.8" fill="#22c55e"/><circle cx="33" cy="9" r="7" fill="#fb7185"/><circle cx="24.5" cy="15" r="7" fill="#fb7185"/><circle cx="41.5" cy="15" r="7" fill="#fb7185"/><circle cx="27.5" cy="24.5" r="7" fill="#fb7185"/><circle cx="38.5" cy="24.5" r="7" fill="#fb7185"/><circle cx="33" cy="17.5" r="5.5" fill="#ffffff"/></g><clipPath id="gg087-dbspp-bowl"><path d="M7 4h52c0 28-10 44-26 44S7 32 7 4"/></clipPath><g id="gg087-pot-bowl-4b09f1f7"><path d="M10 7.5h52c0 28-10 44-26 44s-26-16-26-44" fill="#1e293b" opacity=".15"/><path d="M7 4h52c0 28-10 44-26 44S7 32 7 4" fill="#c4b5fd"/><g clip-path="url(#gg087-dbspp-bowl)"><path d="M7 4h52c0 28-10 44-26 44S7 32 7 4m3 3.5h52c0 28-10 44-26 44s-26-16-26-44" fill="#ffffff" opacity=".16" fill-rule="evenodd"/><path d="M7 4h52c0 28-10 44-26 44S7 32 7 4M4 .5h52c0 28-10 44-26 44S4 28.5 4 .5" fill="#1e293b" opacity=".1" fill-rule="evenodd"/></g></g><g id="gg087-eyes-angry-4b09f1f7"><circle cx="9" cy="10" r="6" fill="#ffffff"/><circle cx="31" cy="10" r="6" fill="#ffffff"/><circle cx="9" cy="10" r="2.6" fill="#1e293b"/><circle cx="31" cy="10" r="2.6" fill="#1e293b"/><path d="m3 2 12 4m22-4L25 6" stroke="#1e293b" stroke-width="3" stroke-linecap="round" stroke-linejoin="round"/></g><g id="gg087-mouth-open-4b09f1f7"><ellipse cx="10" cy="5.5" rx="5" ry="5.5" fill="#1e293b"/><ellipse cx="10" cy="8" rx="2.7" ry="2" fill="#fb7185"/></g><g id="gg087-animation-none-4b09f1f7"></g><clipPath id="gg087-clip-4b09f1f7"><rect width="100" height="100" rx="50" ry="50"/></clipPath></defs><g clip-path="url(#gg087-clip-4b09f1f7)"><rect width="100" height="100" fill="#f0e68c"/><g class="dbsp-a"><g class="dbsp-g"><use transform="translate(17 9)" href="#gg087-plant-flower-4b09f1f7"/></g><use transform="translate(17 58)" href="#gg087-pot-bowl-4b09f1f7"/><g class="dbsp-e"><use transform="translate(30 67)" href="#gg087-eyes-angry-4b09f1f7"/></g><use transform="translate(40 81)" href="#gg087-mouth-open-4b09f1f7"/></g><use href="#gg087-animation-none-4b09f1f7"/></g></svg>